# xmcd CD database file generated by OrangeCD 5.2
#
# Track frame offsets:
#	150
#	7957
#	18492
#	29617
#	42665
#	55725
#	66030
#	67140
#	76620
#	87565
#	100000
#	110125
#	111140
#	120695
#	132802
#	144125
#	155720
#	175417
#	186060
#	186452
#	195805
#	208165
#	220352
#	232217
#	242697
#	255120
#	256237
#	269225
#	278447
#	289822
#	290930
#	302175
#	313325
#	315232
#	325317
#	337607
#
# Disc length: 4673 seconds
#
# Revision: 4
# Processed by: cddbd v1.5.1PL0 Copyright (c) Steve Scherf et al.
# Submitted via: OrangeCD 5.2
#
DISCID=1e123f24
DTITLE=SAR - Sam Cooke's SAR Records Story   Disc 2 
DYEAR=1994
DGENRE=R&B Compilation
TTITLE0=Sam Cooke - You Send Me (Demo)
TTITLE1=Sam Cooke - Just For You
TTITLE2=Sam Cooke - Somewhere There's A Girl
TTITLE3=Sam Cooke - You Where Made For Me
TTITLE4=Mel Carter - When A Boy Falls In Love
TTITLE5=The Simms Twins - Soothe Me
TTITLE6=The Simms Twins - That's Where It's At (Chatter)
TTITLE7=The Simms Twins - That's Where It's At
TTITLE8=The Valentinos - Everybody Wants To Fall In Love
TTITLE9=Johnnie Taylor - Keep On Loving You
TTITLE10=Johnnie Taylor - I'll Always Be In Love With You
TTITLE11=Johnnie Taylor - Baby, We've Got Love (Chatter)
TTITLE12=Johnnie Taylor - Baby, We've Got Love
TTITLE13=The Valentinos - Baby, Lots Of Luck
TTITLE14=L. C. Cooke - Put Me Down Easy
TTITLE15=Johnnie Taylor - Rome (Wasn't Built In A Day)
TTITLE16=Billy Preston - Greazee Part I and 2
TTITLE17=The Simms Twins - I Gopher You
TTITLE18=The Simms Twins - I Gopher You (Chatter)
TTITLE19=Johnnie Morisette - You're Always On My Mind
TTITLE20=Johnnie Taylor - I Need Lots Of Love
TTITLE21=Johnnie Morisette - Don't Throw Your Love On Me So Strong
TTITLE22=Johnnie Morisette - Black Night
TTITLE23=Johnnie Morisette - Damper
TTITLE24=Johnnie Taylor - You Can Run (But You Can't Hide)
TTITLE25=Johnnie Morisette - Meet Me At The Twisting Place (Chatter)
TTITLE26=Johnnie Morisette - Meet Me At The Twisting Place
TTITLE27=The Simms Twins - Good Good Loving
TTITLE28=L. C. Cooke - The Wobble
TTITLE29=The Valentinos - Lookin' For A Love (Chatter)
TTITLE30=The Valentinos - Lookin' For A Love
TTITLE31=The Valentinos - I've Got Love For You
TTITLE32=The Valentinos - I've Got A Girl (Chatter)
TTITLE33=The Valentinos - I've Got A Girl
TTITLE34=The Valentinos - Tired Of Living In The Country
TTITLE35=The Valentinos - It's All Over Now
EXTD=
EXTT0=
EXTT1=
EXTT2=
EXTT3=
EXTT4=
EXTT5=
EXTT6=
EXTT7=
EXTT8=
EXTT9=
EXTT10=
EXTT11=
EXTT12=
EXTT13=
EXTT14=
EXTT15=
EXTT16=
EXTT17=
EXTT18=
EXTT19=
EXTT20=
EXTT21=
EXTT22=
EXTT23=
EXTT24=
EXTT25=
EXTT26=
EXTT27=
EXTT28=
EXTT29=
EXTT30=
EXTT31=
EXTT32=
EXTT33=
EXTT34=
EXTT35=
PLAYORDER=
